<?xml version="1.0" standalone="no"?>
<svg viewBox="0 0 200 200" xmlns="http://www.w3.org/2000/svg">
  <path fill="#FF0066" d="M23.7,-37.3C34,-35.1,47.8,-35.3,51.3,-29.5C54.8,-23.7,47.9,-11.9,51.8,2.2C55.6,16.3,70.1,32.6,69.4,43.2C68.6,53.8,52.7,58.7,38.6,59.7C24.5,60.7,12.3,57.8,1.6,54.9C-9,52.1,-17.9,49.3,-32.2,48.4C-46.4,47.5,-66,48.5,-72.6,40.7C-79.2,32.9,-72.8,16.5,-64.2,5C-55.6,-6.5,-44.7,-13,-40.2,-24.4C-35.7,-35.9,-37.7,-52.2,-32,-57.1C-26.4,-62,-13.2,-55.4,-3.2,-49.8C6.7,-44.2,13.4,-39.5,23.7,-37.3Z" transform="translate(100 100)" />
</svg>
